<?xml version="1.0" standalone="no"?>
<!DOCTYPE svg PUBLIC "-//W3C//DTD SVG 20010904//EN"
 "http://www.w3.org/TR/2001/REC-SVG-20010904/DTD/svg10.dtd">
<svg version="1.0" xmlns="http://www.w3.org/2000/svg"
 width="1054.000000pt" height="1280.000000pt" viewBox="0 0 1054.000000 1280.000000"
 preserveAspectRatio="xMidYMid meet">
<metadata>
Created by potrace 1.15, written by Peter Selinger 2001-2017
</metadata>
<g transform="translate(0.000000,1280.000000) scale(0.100000,-0.100000)"
fill="#000000" stroke="none">
<path d="M3990 12110 c-408 -47 -838 -507 -997 -1065 -14 -49 -27 -92 -29 -94
-2 -2 -47 19 -101 47 -167 85 -308 122 -461 122 -440 0 -725 -384 -699 -941
23 -472 260 -978 624 -1329 193 -187 378 -303 588 -367 81 -24 106 -27 240
-28 121 0 160 4 203 19 58 20 74 16 49 -12 -19 -20 -23 -37 -7 -27 13 8 14 9
-15 -75 -34 -100 -34 -100 26 -100 l51 0 -6 -35 c-24 -129 -127 -355 -303
-665 -128 -226 -169 -306 -218 -424 -82 -199 -112 -397 -81 -531 32 -134 88
-226 315 -516 54 -68 61 -81 40 -74 -13 4 -60 10 -104 12 -65 4 -91 1 -137
-17 -79 -29 -150 -96 -190 -178 -30 -60 -33 -75 -33 -152 1 -97 25 -164 88
-236 35 -40 140 -104 171 -104 13 0 53 -68 44 -75 -2 -1 -32 -17 -68 -36 -78
-41 -200 -159 -249 -242 -18 -31 -44 -86 -57 -120 -28 -79 -49 -216 -34 -231
7 -7 10 4 10 33 0 57 27 174 56 240 56 127 172 251 294 315 l67 35 33 -34 33
-34 -75 -80 c-115 -122 -175 -253 -194 -420 -5 -47 -4 -62 5 -57 6 4 11 26 11
50 0 65 35 189 76 266 35 68 138 190 175 211 16 8 29 2 74 -35 100 -81 251
-159 352 -180 35 -8 38 -15 67 -199 l13 -88 -31 -13 c-56 -23 -116 -112 -116
-171 0 -18 -5 -25 -20 -25 -57 0 -79 -85 -36 -137 20 -24 21 -30 10 -41 -8 -7
-14 -19 -14 -26 0 -22 40 -66 59 -66 14 0 17 -6 13 -26 -6 -34 31 -74 71 -74
27 0 28 -2 22 -33 -23 -106 -136 -355 -220 -487 -29 -46 -41 -72 -33 -76 33
-21 212 326 272 528 29 99 34 68 11 -68 -21 -120 -66 -273 -115 -386 -42 -97
-47 -118 -30 -118 14 0 61 106 103 228 l32 96 6 -154 c6 -169 5 -160 18 -160
5 0 9 98 9 218 0 240 19 421 49 469 15 24 24 28 55 25 20 -2 50 4 67 12 27 15
32 14 74 -10 69 -38 209 -86 239 -82 26 4 27 3 33 -56 11 -106 26 -177 50
-244 20 -56 22 -68 10 -86 -29 -47 -50 -178 -48 -316 1 -165 29 -286 98 -429
59 -121 126 -211 230 -308 104 -98 214 -163 342 -205 82 -27 100 -37 101 -53
0 -11 4 -74 8 -139 l7 -119 -49 7 c-104 14 -439 46 -654 63 -322 24 -1145 25
-1380 0 -468 -49 -779 -140 -921 -269 -34 -32 -34 -44 2 -70 54 -40 213 -63
689 -103 617 -51 782 -81 824 -147 44 -71 -149 -78 -912 -33 -929 55 -1398 16
-1527 -126 -29 -33 -35 -46 -35 -86 0 -170 177 -248 642 -284 182 -14 1002 -8
1700 12 503 14 850 4 1051 -31 182 -31 281 -79 235 -114 -30 -22 -162 -45
-438 -76 -363 -41 -490 -67 -490 -99 0 -48 218 -113 485 -145 563 -67 1716
-24 2540 95 237 34 315 56 315 89 0 43 -105 82 -489 180 -156 40 -305 81 -329
91 -98 42 -67 44 676 41 1512 -8 2412 51 2610 170 118 72 -100 195 -428 242
-185 26 -283 29 -935 31 -546 1 -654 4 -738 18 -101 17 -142 32 -132 47 9 15
142 40 425 81 608 87 834 137 914 200 56 44 14 103 -99 138 -113 35 -449 84
-802 117 -70 6 -73 8 -73 33 0 39 -12 50 -65 66 -89 27 -166 14 -244 -39 l-38
-27 -154 11 c-141 9 -596 30 -661 30 -72 0 -111 216 -72 394 15 68 20 77 58
105 23 16 78 63 124 103 328 291 554 713 613 1148 13 97 17 454 5 488 -13 39
23 26 77 -28 27 -27 54 -50 58 -50 21 0 -1 165 -37 271 -13 42 -40 102 -59
134 -19 32 -35 59 -35 61 0 9 43 3 80 -12 59 -24 68 -9 36 55 -15 28 -53 82
-87 121 -33 38 -55 70 -49 70 7 0 45 -13 87 -30 41 -17 76 -30 79 -30 12 0 1
43 -23 86 -31 54 -152 186 -195 212 -41 24 -34 35 18 27 52 -7 82 -19 136 -52
68 -42 76 -22 27 63 -56 98 -200 222 -279 239 -51 11 -33 25 33 25 55 0 111
-13 190 -45 12 -5 17 -2 17 12 0 28 -90 134 -166 194 -70 55 -243 149 -276
149 -11 0 -16 5 -13 10 16 26 215 4 318 -35 34 -14 18 32 -25 72 -61 55 -127
99 -211 138 -76 36 -210 75 -259 75 -49 0 -22 18 55 35 49 11 104 16 172 13
83 -2 100 -1 100 12 0 18 -62 49 -165 84 -110 37 -162 47 -290 55 l-115 7 48
22 c49 22 163 47 270 58 175 18 -121 89 -427 102 l-161 7 45 27 c70 42 191 78
287 86 68 5 88 10 88 22 0 19 -106 46 -240 61 -106 12 -376 6 -455 -10 -25 -5
-47 -8 -49 -6 -5 6 110 61 184 88 89 31 169 48 270 56 62 5 80 9 80 21 0 26
-123 41 -345 43 -216 1 -362 -16 -526 -63 -37 -11 -69 -18 -71 -16 -2 2 36 27
84 55 147 85 293 135 521 177 13 3 22 10 19 17 -6 19 -259 21 -395 2 -202 -28
-421 -94 -581 -174 -35 -18 -65 -30 -67 -28 -2 2 31 38 74 79 180 172 356 253
605 280 118 12 146 21 106 36 -109 41 -471 40 -649 -1 -436 -102 -796 -383
-1000 -781 -29 -55 -49 -108 -47 -118 3 -10 2 -18 -3 -18 -14 0 -115 -104
-165 -170 -45 -58 -54 -65 -90 -69 -81 -7 -148 -59 -169 -132 -12 -39 -19 -46
-57 -60 l-44 -17 -55 107 c-31 58 -62 116 -70 127 -11 18 -11 39 -1 120 28
231 82 415 259 874 119 310 171 465 199 593 14 66 30 103 80 185 34 56 65 111
68 122 5 16 14 19 57 17 l51 -2 -2 75 -2 74 20 -18 c12 -11 24 -16 28 -13 3 4
-6 16 -20 28 -15 11 -27 30 -27 43 0 21 6 24 51 30 38 5 49 11 45 21 -3 9 7
18 30 25 57 19 174 103 240 172 253 265 387 679 371 1143 -10 281 -70 520
-188 743 l-59 114 30 97 c51 165 71 281 77 466 8 251 -21 420 -102 592 -128
273 -363 414 -635 383z m-367 -3603 c68 -55 117 -85 186 -113 51 -21 57 -26
63 -61 28 -156 16 -387 -23 -450 -11 -18 -101 -137 -200 -264 -212 -273 -293
-394 -360 -533 -133 -279 -119 -489 55 -785 32 -54 36 -70 36 -129 0 -37 5
-96 10 -132 5 -35 8 -65 7 -66 -1 -1 -23 -4 -49 -6 l-47 -5 -88 114 c-213 277
-241 316 -275 385 -70 143 -85 274 -49 438 39 174 109 330 296 660 176 311
252 477 295 646 l10 41 60 7 c33 4 62 10 64 15 3 4 -4 37 -15 74 -10 37 -27
96 -38 132 -26 91 -17 96 62 32z m405 -162 c2 -2 -15 -37 -37 -77 -23 -41 -41
-80 -41 -85 0 -6 14 -16 31 -22 l30 -10 -37 -68 c-66 -120 -64 -121 -61 13 1
65 -2 152 -6 192 l-8 73 63 -7 c35 -4 64 -8 66 -9z m-197 -602 c-28 -108 -85
-271 -182 -520 -101 -260 -140 -367 -178 -497 -36 -120 -81 -338 -81 -390 0
-20 -4 -36 -8 -36 -11 0 -106 192 -126 255 -42 133 -39 257 10 403 54 163 150
316 389 622 83 107 160 208 170 223 10 15 20 26 22 23 2 -2 -5 -39 -16 -83z
m-340 -1704 c12 -27 21 -51 18 -53 -2 -2 -21 -6 -41 -9 -45 -7 -47 -3 -54 117
l-6 91 30 -49 c16 -27 40 -70 53 -97z m167 -1115 c21 -6 22 -10 22 -142 0 -75
-4 -132 -8 -126 -5 5 -16 59 -26 119 -9 61 -19 120 -22 133 -7 23 -2 25 34 16z
m130 -57 c23 -60 42 -154 42 -204 0 -19 4 -32 8 -29 13 8 -6 150 -28 216 -11
33 -20 61 -20 63 0 2 26 3 58 3 54 -1 59 -3 95 -42 20 -23 51 -47 67 -54 17
-7 30 -18 31 -24 0 -6 7 -47 14 -91 l14 -80 -3 72 -3 72 91 -46 c50 -25 112
-53 138 -62 l47 -16 -33 -53 c-19 -29 -44 -77 -57 -107 -18 -40 -29 -55 -44
-55 -41 0 -143 21 -252 52 -106 29 -115 34 -129 65 -9 18 -31 46 -49 61 l-32
29 -5 142 c-4 129 -3 141 13 141 12 0 24 -17 37 -53z m2361 -2581 c6 -22 9
-41 8 -42 -1 -1 -35 -5 -76 -9 l-74 -7 7 43 c14 96 25 213 21 218 -3 2 16 16
42 30 l48 26 6 -110 c4 -60 12 -128 18 -149z m-450 41 c6 -35 11 -130 11 -211
0 -133 -2 -148 -16 -142 -59 22 -329 95 -375 101 -85 11 -83 6 -70 131 6 60
14 121 17 137 l6 27 131 1 c73 0 155 4 182 9 105 16 102 18 114 -53z m443
-223 l78 -6 44 -62 c24 -34 63 -79 86 -100 23 -21 39 -41 35 -44 -9 -10 -269
-9 -337 1 l-58 8 0 78 c0 43 3 93 6 111 6 29 9 31 38 26 17 -3 66 -8 108 -12z"/>
</g>
</svg>
